HIERARCHY
ROOT hip
{
	OFFSET 0.000000 0.000000 0.000000 
	CHANNELS 6 Xposition Yposition Zposition Xrotation Zrotation Yrotation
	JOINT abdomen
	{
		OFFSET 0.000000 3.402643 0.000000 
		CHANNELS 3 Xrotation Zrotation Yrotation
		JOINT chest
		{
			OFFSET 0.000000 8.438565 -0.680529 
			CHANNELS 3 Xrotation Zrotation Yrotation
			JOINT neck
			{
				OFFSET 0.000000 10.207942 -0.272212 
				CHANNELS 3 Xrotation Zrotation Yrotation
				JOINT head
				{
					OFFSET 0.000000 3.130431 0.000000 
					CHANNELS 3 Xrotation Zrotation Yrotation
					End Site
					{
						OFFSET 0.000000 3.130435 0.000000 
					}
				}
			}
			JOINT lCollar
			{
				OFFSET 3.470700 6.669187 -0.816635 
				CHANNELS 3 Yrotation Zrotation Xrotation
				JOINT lShldr
				{
					OFFSET 3.198488 0.000000 0.000000 
					CHANNELS 3 Zrotation Yrotation Xrotation
					JOINT lForeArm
					{
						OFFSET 10.139888 0.000000 0.000000 
						CHANNELS 3 Yrotation Zrotation Xrotation
						JOINT lHand
						{
							OFFSET 8.370511 0.000000 0.000000 
							CHANNELS 3 Zrotation Yrotation Xrotation
							End Site
							{
								OFFSET 4.083176 0.000000 0.000000 
							}
						}
					}
				}
			}
			JOINT rCollar
			{
				OFFSET -3.470700 6.669187 -0.816635 
				CHANNELS 3 Yrotation Zrotation Xrotation
				JOINT rShldr
				{
					OFFSET -3.198488 0.000000 0.000000 
					CHANNELS 3 Zrotation Yrotation Xrotation
					JOINT rForeArm
					{
						OFFSET -10.139888 0.000000 0.000000 
						CHANNELS 3 Yrotation Zrotation Xrotation
						JOINT rHand
						{
							OFFSET -8.370511 0.000000 0.000000 
							CHANNELS 3 Zrotation Yrotation Xrotation
							End Site
							{
								OFFSET -4.083176 0.000000 0.000000 
							}
						}
					}
				}
			}
		}
	}
	JOINT lThigh
	{
		OFFSET 5.308129 -1.633274 1.361059 
		CHANNELS 3 Xrotation Zrotation Yrotation
		JOINT lShin
		{
			OFFSET -2.041588 -20.007561 0.000000 
			CHANNELS 3 Xrotation Zrotation Yrotation
			JOINT lFoot
			{
				OFFSET 0.000000 -19.190928 -1.224953 
				CHANNELS 3 Xrotation Yrotation Zrotation
				End Site
				{
					OFFSET 0.000000 -2.449906 4.627600 
				}
			}
		}
	}
	JOINT rThigh
	{
		OFFSET -5.308129 -1.633274 1.361059 
		CHANNELS 3 Xrotation Zrotation Yrotation
		JOINT rShin
		{
			OFFSET 2.041588 -20.007561 0.000000 
			CHANNELS 3 Xrotation Zrotation Yrotation
			JOINT rFoot
			{
				OFFSET 0.000000 -19.190928 -1.224953 
				CHANNELS 3 Xrotation Yrotation Zrotation
				End Site
				{
					OFFSET 0.000000 -2.449906 4.627600 
				}
			}
		}
	}
}
MOTION
Frames: 6
Frame Time: 0.033333
11.714163 -40.101959 -47.010174 20.615259 -115.712883 -88.114265 0.000000 0.000000 0.000000 22.373049 10.576172 -4.441566 -8.447267 0.000000 0.000000 35.175785 6.757813 -17.684399 -2.812500 -0.087891 -0.009766 26.142578 -26.289063 -129.345703 -2.871094 -14.218751 26.074221 19.228516 -19.111328 21.949930 2.802734 0.078125 -0.009779 -33.164063 -18.769533 -65.364471 18.427734 15.468749 19.931643 -33.476559 32.792973 37.866619 -59.123478 18.561270 5.977193 28.568563 -7.226993 -0.551378 -10.128739 -6.128294 -13.045456 -43.573242 -56.623940 -20.651773 29.156750 11.658811 5.655597 -3.941689 8.642138 27.195400 
11.733990 -40.164505 -46.998726 22.548832 -113.974609 -90.165176 0.000000 0.000000 0.000000 20.869139 9.697266 -4.228516 -8.447267 0.000000 0.000000 35.605469 7.832031 -18.670544 -2.812500 -0.087891 -0.009766 24.853516 -27.265627 -125.697830 -2.841797 -12.753907 26.992191 21.904299 -19.082031 20.094465 2.802734 0.078125 -0.009779 -35.361328 -20.488281 -63.675293 17.177736 15.800782 19.509060 -36.250004 33.623047 37.373047 -58.649303 18.582922 5.026326 29.758369 -6.792390 -0.397226 -10.310377 -6.092942 -12.637358 -43.075371 -56.857964 -21.384474 30.329031 12.088609 5.762187 -4.298083 8.460396 26.817480 
11.679944 -40.266926 -46.981735 24.179689 -112.363281 -92.421143 0.000000 0.000000 0.000000 19.404297 8.955079 -3.875433 -8.447267 0.000000 0.000000 35.878910 9.062501 -19.734787 -2.812500 -0.087891 -0.009766 23.593750 -27.880859 -122.041016 -2.988281 -11.484375 27.550770 24.775389 -19.208982 18.779297 2.802734 0.078125 -0.009779 -36.308598 -22.255859 -61.728512 16.298828 16.142578 18.310549 -38.144531 34.531254 36.304359 -57.428680 19.285934 3.975585 30.923241 -6.250988 -0.737554 -10.103367 -5.418573 -12.121224 -41.142818 -56.169895 -22.872631 31.115572 12.014140 6.260504 -4.043847 8.014114 26.607635 
11.682777 -40.249931 -47.015842 26.064466 -110.771492 -95.018898 0.000000 0.000000 0.000000 17.939455 8.193359 -3.484936 -8.447267 0.000000 0.000000 36.669918 9.931640 -20.888670 -2.812500 -0.087891 -0.009766 22.001951 -27.968748 -118.056641 -3.134765 -10.214844 28.077904 27.470703 -19.521482 17.233065 2.802734 0.078125 -0.009779 -36.328125 -22.119143 -59.271255 15.869142 15.439451 16.862635 -37.597652 34.394531 34.898090 -55.377411 20.115850 3.113729 31.980551 -6.342916 -0.682330 -10.005139 -4.803847 -11.043016 -38.506458 -55.438854 -24.687357 32.002209 12.194726 6.424522 -4.347501 7.648622 26.288418 
11.643007 -40.326752 -46.995895 27.792969 -109.130859 -97.822266 0.000000 0.000000 0.000000 16.308594 7.421875 -2.929687 -8.447267 0.000000 0.000000 37.470703 10.791016 -21.814577 -2.812500 -0.087891 -0.009766 20.595703 -28.066406 -114.775383 -3.300781 -9.541016 27.539061 29.980471 -19.677736 16.119757 2.802734 0.078125 -0.009779 -36.025391 -22.705080 -56.132813 15.478517 15.097657 14.977925 -37.353516 33.886715 32.958984 -53.418861 21.060440 2.348305 33.347404 -5.821863 -0.499324 -9.444142 -3.610560 -10.442857 -35.703739 -54.587963 -25.752136 33.278465 12.324869 6.820910 -4.878194 7.475481 26.110033 
11.648674 -40.321087 -47.021500 30.654299 -107.441406 -101.493698 0.000000 0.000000 0.000000 14.863280 6.796875 -2.412109 -8.447267 0.000000 0.000000 38.603516 11.289063 -22.324219 -2.812500 -0.087891 -0.009766 19.375000 -27.812502 -111.484375 -3.818359 -9.023438 27.120672 32.021484 -20.566408 14.970704 2.802734 0.078125 -0.009779 -35.146484 -21.894533 -52.806377 15.039063 14.042969 13.642578 -36.914066 33.212894 30.957029 -50.632030 21.961700 1.962659 34.732887 -6.042361 -0.697606 -8.755630 -2.313641 -9.586421 -32.354088 -53.773411 -27.155621 33.568012 12.668123 6.460514 -4.663103 7.338895 26.209370 
